<svg width="349" height="350" viewBox="0 0 349 350" fill="none" xmlns="http://www.w3.org/2000/svg">
<g filter="url(#filter0_d)">
<g clip-path="url(#clip0)">
<path d="M165.877 171.096C167.425 172.645 167.425 175.158 165.877 176.706L132.219 210.364C130.67 211.912 128.157 211.912 126.609 210.364L98.5606 182.316C97.0125 180.768 97.0125 178.254 98.5606 176.706C100.109 175.158 102.622 175.158 104.17 176.706L129.414 201.95L160.267 171.096C161.815 169.548 164.328 169.548 165.877 171.096Z" fill="#A1E8DF"/>
<path d="M177.096 221.584L210.754 187.925C212.303 186.377 214.816 186.377 216.364 187.925L250.022 221.584C251.57 223.132 251.57 225.645 250.022 227.193C248.474 228.741 245.961 228.741 244.413 227.193L213.56 196.34L185.511 224.388L199.535 238.413L216.365 255.242C217.913 256.79 217.913 259.303 216.365 260.851L182.706 294.51C181.158 296.058 178.645 296.058 177.097 294.51C175.549 292.961 175.549 290.448 177.097 288.9L207.95 258.047L196.731 246.827L146.243 297.314L168.682 319.753C171.776 322.847 176.808 322.847 179.902 319.753L241.608 258.047L210.755 227.193C209.207 225.645 209.207 223.132 210.755 221.584C212.303 220.036 214.816 220.036 216.364 221.584L247.217 252.437L275.266 224.389L244.412 193.535C242.864 191.987 242.864 189.474 244.412 187.926C245.961 186.377 248.474 186.377 250.022 187.926L264.046 201.95L283.68 182.316C285.228 180.768 287.742 180.768 289.29 182.316C290.838 183.864 290.838 186.377 289.29 187.926L269.656 207.559L280.875 218.779L325.754 173.901C328.847 170.807 328.848 165.775 325.754 162.681L320.144 157.072L306.12 171.096C304.572 172.644 302.058 172.644 300.51 171.096L286.486 157.072L266.852 176.706C265.304 178.254 262.79 178.254 261.242 176.706C259.694 175.158 259.694 172.645 261.242 171.096L283.681 148.657C285.229 147.109 287.743 147.109 289.291 148.657L303.315 162.682L314.534 151.462L235.998 72.9264L185.511 123.414L230.388 168.291L264.047 134.633L235.998 106.585L219.169 123.414L230.388 134.633L233.193 131.828C234.741 130.28 237.254 130.28 238.803 131.828C240.351 133.377 240.351 135.89 238.803 137.438L233.193 143.047C231.645 144.595 229.132 144.595 227.584 143.047L210.754 126.218C209.206 124.67 209.206 122.157 210.754 120.609L233.193 98.1698C234.742 96.6216 237.255 96.6216 238.803 98.1697L272.461 131.828C274.009 133.376 274.009 135.889 272.461 137.438L233.193 176.706C231.645 178.254 229.132 178.254 227.584 176.706L149.048 98.1698C147.5 96.6216 147.5 94.1084 149.048 92.5603C150.596 91.0121 153.109 91.0121 154.657 92.5603L179.901 117.804L233.193 64.5115C234.742 62.9633 237.255 62.9633 238.803 64.5115L331.363 157.072C337.551 163.259 337.551 173.323 331.364 179.511L185.511 325.363C179.323 331.551 169.259 331.551 163.072 325.363L137.828 300.12C136.28 298.572 136.28 296.058 137.828 294.51L191.121 241.218L177.096 227.193C175.548 225.645 175.548 223.132 177.096 221.584Z" fill="#A1E8DF"/>
<path d="M177.096 92.5603C175.548 91.0121 175.548 88.4989 177.096 86.9508L199.535 64.5118C201.084 62.9637 203.597 62.9637 205.145 64.5118C206.693 66.06 206.693 68.5732 205.145 70.1213L182.706 92.5603C181.158 94.1084 178.645 94.1084 177.096 92.5603Z" fill="#A1E8DF"/>
<path d="M81.7311 131.828C80.183 130.28 80.183 127.767 81.7311 126.219L115.389 92.5603C116.938 91.0121 119.451 91.0121 120.999 92.5603L182.706 154.267C184.254 155.815 184.254 158.329 182.706 159.877C181.158 161.425 178.645 161.425 177.096 159.877L118.194 100.975L87.341 131.828C85.7928 133.377 83.2796 133.377 81.7311 131.828Z" fill="#A1E8DF"/>
<path d="M193.925 171.096C195.473 169.548 197.987 169.548 199.535 171.096C201.083 172.644 201.083 175.157 199.535 176.706L165.877 210.364C164.328 211.912 161.815 211.912 160.267 210.364C158.719 208.816 158.719 206.303 160.267 204.754L193.925 171.096Z" fill="#A1E8DF"/>
<path d="M185.511 11.2193L221.974 47.6826C223.522 49.2308 223.522 51.744 221.974 53.2921C220.426 54.8403 217.913 54.8403 216.365 53.2921L179.902 16.8291C176.808 13.7354 171.776 13.7351 168.682 16.8291L140.633 44.8776L163.072 67.3165L179.902 50.4874L171.487 42.0728C169.939 40.5247 169.939 38.0115 171.487 36.4633C173.035 34.9152 175.548 34.9152 177.096 36.4633L188.316 47.6827C189.864 49.2308 189.864 51.744 188.316 53.2921L165.877 75.7311C164.329 77.2793 161.815 77.2793 160.267 75.7311L151.853 67.3165L137.828 81.3409C136.28 82.8891 133.767 82.8891 132.219 81.3409C130.671 79.7928 130.671 77.2796 132.219 75.7314L146.243 61.707L135.024 50.4877L56.4881 129.024L70.5125 143.048C72.0606 144.596 72.0606 147.109 70.5125 148.658C68.9643 150.206 66.4511 150.206 64.903 148.658L50.8786 134.633L39.6593 145.852L67.7074 173.901L115.389 126.219C116.938 124.67 119.451 124.67 120.999 126.219L149.047 154.267C150.596 155.815 150.596 158.328 149.047 159.877L132.218 176.706C130.67 178.254 128.157 178.254 126.609 176.706L115.389 165.486C113.841 163.938 113.841 161.425 115.389 159.877C116.938 158.329 119.451 158.329 120.999 159.877L129.413 168.291L140.633 157.072L118.194 134.633L70.5115 182.315C68.9633 183.864 66.4502 183.864 64.902 182.315L34.0485 151.462L22.8291 162.681C19.7355 165.775 19.7351 170.807 22.8291 173.901L123.804 274.876L140.633 258.047L81.7311 199.145C80.183 197.596 80.183 195.083 81.7311 193.535C83.2793 191.987 85.7925 191.987 87.3406 193.535L149.048 255.242C150.596 256.79 150.596 259.304 149.048 260.852L126.609 283.291C125.061 284.839 122.547 284.839 120.999 283.291L17.2196 179.511C11.032 173.323 11.032 163.259 17.2193 157.072L163.072 11.2193C169.259 5.03195 179.323 5.03195 185.511 11.2193Z" fill="#A1E8DF"/>
<path d="M149.048 221.584L165.877 238.413C167.425 239.961 167.425 242.474 165.877 244.023C164.329 245.571 161.816 245.571 160.267 244.023L143.438 227.193C141.89 225.645 141.89 223.132 143.438 221.584C144.986 220.036 147.499 220.035 149.048 221.584Z" fill="#A1E8DF"/>
</g>
</g>
<defs>
<filter id="filter0_d" x="0" y="0" width="348.583" height="349.583" filterUnits="userSpaceOnUse" color-interpolation-filters="sRGB">
<feFlood flood-opacity="0" result="BackgroundImageFix"/>
<feColorMatrix in="SourceAlpha" type="matrix" values="0 0 0 0 0 0 0 0 0 0 0 0 0 0 0 0 0 0 127 0"/>
<feOffset dy="7"/>
<feGaussianBlur stdDeviation="3"/>
<feColorMatrix type="matrix" values="0 0 0 0 0 0 0 0 0 0 0 0 0 0 0 0 0 0 0.25 0"/>
<feBlend mode="normal" in2="BackgroundImageFix" result="effect1_dropShadow"/>
<feBlend mode="normal" in="SourceGraphic" in2="effect1_dropShadow" result="shape"/>
</filter>
<clipPath id="clip0">
<rect width="238" height="238" rx="114" transform="matrix(-0.707107 -0.707107 -0.707107 0.707107 342.583 168.291)" fill="white"/>
</clipPath>
</defs>
</svg>
